<?xml version="1.0" standalone="no"?>
<!DOCTYPE svg PUBLIC "-//W3C//DTD SVG 1.1//EN" "http://www.w3.org/Graphics/SVG/1.1/DTD/svg11.dtd" >
<!--
2013-9-30: Created.
-->
<svg>
<metadata>
Created by iconfont
</metadata>
<defs>

<font id="icon" horiz-adv-x="1024" >
  <font-face
    font-family="icon"
    font-weight="500"
    font-stretch="normal"
    units-per-em="1024"
    ascent="896"
    descent="-128"
  />
    <missing-glyph />
    
    <glyph glyph-name="-chehui" unicode="&#58994;" d="M502.281906 755.0237079999999c4.475438 0.12787 8.823006-0.12787 13.234509-0.12787V859.30141a35.803503 35.803503 0 0 0 55.815104 29.537889L946.75682 634.314755a35.675633 35.675633 0 0 0 0-59.011844L571.331519 320.778367a35.739568 35.739568 0 0 0-55.815104 29.473955V455.80872c-180.935559 2.237719-331.374205-123.841759-338.662775-286.811631-5.56233-125.056521 74.739812-235.91951 193.850394-287.131306 2.173784-0.959022 4.475438-2.749198 4.219698-6.457417-0.12787-3.068872-3.196741-3.900024-5.945939-3.132807C178.260206-71.717533 37.987197 92.72284100000002 32.680606 290.601128 25.903515 540.010886 236.185159 747.926942 502.217972 755.0237079999999z"  horiz-adv-x="1024" />

    
    <glyph glyph-name="-live-number" unicode="&#59524;" d="M734.071467 399.1552c55.159467 0 102.126933-21.2992 145.8176-65.536 60.074667-60.6208 91.136-162.679467 86.2208-226.645333-1.6384-22.869333-5.461333-75.776-72.021334-117.896534-67.1744-42.052267-180.770133-62.2592-347.818666-62.2592-163.293867 0-275.797333 19.6608-343.4496 59.528534-63.8976 37.6832-75.3664 85.1968-78.097067 117.9648-6.007467 69.358933 32.768 159.402667 73.728 211.831466 42.052267 53.521067 98.850133 83.012267 161.109333 83.012267 38.229333 0 62.805333-13.1072 84.650667-24.029867 25.053867-12.561067 48.5376-24.576 102.6048-24.576 55.7056 0 79.6672 12.561067 103.150933 24.576 21.2992 11.4688 45.8752 24.029867 84.104534 24.029867z m0-76.458667c-19.114667 0-30.037333-6.007467-48.059734-15.291733-28.398933-15.291733-63.829333-33.860267-138.6496-33.860267-72.635733 0-108.680533 18.568533-137.6256 33.314134-18.0224 9.284267-30.037333 15.291733-49.698133 15.291733-48.5376 0-81.3056-28.945067-100.420267-53.521067-34.952533-44.782933-61.166933-115.712-57.344-157.764266 1.6384-18.0224 6.5536-38.775467 40.96-58.9824 37.6832-22.391467 121.173333-48.605867 304.128-48.605867 186.709333 0 270.267733 27.8528 306.858667 50.7904 33.860267 21.2992 35.498667 42.5984 36.590933 58.436267 2.730667 39.867733-18.0224 120.149333-64.443733 167.048533-30.037333 30.037333-57.890133 43.144533-92.296533 43.144533z m70.4512 470.6304a39.185067 39.185067 0 0 0 52.4288 7.645867l0.546133 0.546133 2.184533-1.6384c4.369067-3.822933 43.690667-34.952533 67.106134-91.136 18.0224-43.144533 30.037333-111.4112-13.1072-194.9696 51.882667-22.391467 96.119467-61.098667 128.887466-113.527466 40.413867-64.443733 57.344-143.086933 46.421334-215.108267a39.185067 39.185067 0 0 0-38.229334-32.768c-1.6384 0-3.822933 0-5.461333 0.546133a38.638933 38.638933 0 0 0-32.221867 43.690667c15.291733 103.765333-48.605867 234.769067-165.410133 257.706667a38.229333 38.229333 0 0 0-15.291733 6.5536 37.956267 37.956267 0 0 0-8.738134 53.4528c41.506133 57.890133 52.4288 112.503467 32.768 162.747733-8.738133 21.845333-21.845333 40.96-38.775466 57.344a39.5264 39.5264 0 0 0-21.845334 34.884267c0 8.738133 3.2768 16.930133 8.738134 24.029866zM257.365333 808.618667c14.199467 0 27.306667-7.645867 33.860267-20.206934a39.7312 39.7312 0 0 0 3.2768-29.4912 40.96 40.96 0 0 0-18.568533-22.869333c-16.930133-16.384-31.1296-36.590933-39.867734-58.436267-19.6608-50.244267-8.738133-104.8576 32.768-162.747733a38.7072 38.7072 0 0 0-24.029866-60.6208C128 431.445333 63.488 300.373333 78.848 197.154133a38.024533 38.024533 0 0 0-7.099733-28.330666 38.0928 38.0928 0 0 0-25.053867-15.291734c-1.6384-0.546133-3.822933-0.546133-5.461333-0.546133a38.229333 38.229333 0 0 0-38.229334 32.768C-7.3728 257.092267 9.557333 335.73546699999997 49.9712 400.1792c32.1536 52.4288 76.936533 91.682133 129.911467 114.0736-43.144533 83.012267-31.1296 151.825067-13.1072 194.9696 22.9376 56.183467 62.805333 87.8592 67.1744 91.136l1.6384 1.6384a39.389867 39.389867 0 0 0 21.845333 6.5536zM546.816 896c32.221867 0 64.989867-6.5536 94.958933-19.114667 30.583467-12.561067 57.344-31.1296 80.827734-54.0672 22.9376-22.9376 41.506133-50.7904 54.0672-80.759466 12.561067-30.037333 19.114667-62.805333 19.114666-95.0272 0-32.221867-6.5536-64.989867-19.114666-95.0272a247.125333 247.125333 0 0 0-54.0672-80.759467 244.3264 244.3264 0 0 0-80.827734-54.0672 245.9648 245.9648 0 0 0-189.986133 0 252.928 252.928 0 0 0-80.827733 54.0672 247.125333 247.125333 0 0 0-53.998934 80.759467 245.9648 245.9648 0 0 0 0 190.0544 247.125333 247.125333 0 0 0 53.998934 80.759466A244.394667 244.394667 0 0 0 451.7888 876.885333C481.826133 889.4464 514.048 896 546.816 896z m1.6384-78.097067H546.816a171.895467 171.895467 0 0 1-172.032-171.4176c0-22.391467 4.9152-44.782933 13.1072-65.536 8.192-20.753067 21.2992-39.867733 37.137067-55.7056a171.8272 171.8272 0 0 1 121.787733-50.244266c22.9376 0 45.329067 4.369067 66.082133 13.1072 20.6848 8.738133 39.799467 21.2992 55.637334 37.137066 15.837867 15.837867 28.398933 34.952533 37.137066 55.7056 8.738133 20.206933 13.1072 43.144533 13.1072 65.536 0 22.391467-4.369067 44.782933-13.1072 65.536a174.6944 174.6944 0 0 1-37.137066 55.637334 174.626133 174.626133 0 0 1-55.637334 37.137066 163.84 163.84 0 0 1-64.443733 13.1072z"  horiz-adv-x="1093" />

    
    <glyph glyph-name="-live-intro" unicode="&#58990;" d="M500.468376 896A146.294857 146.294857 0 0 1 354.173519 749.705143v-292.525717a146.294857 146.294857 0 0 1 292.525718 0V749.705143A146.294857 146.294857 0 0 1 500.468376 896z m0-731.410287a146.294857 146.294857 0 1 1 0-292.525717 146.294857 146.294857 0 0 1 0 292.525717z"  horiz-adv-x="1024" />

    
    <glyph glyph-name="-check-remark" unicode="&#58991;" d="M607.992403 733.301234l-1.279984-2.879964c3.455957-6.719916 7.9999-12.79984 13.311834-18.239772a27.519656 27.519656 0 0 1 19.647754-7.423907h155.646055v16.575792a64.127198 64.127198 0 0 1-2.047975 15.295809 54.783315 54.783315 0 0 1-11.263859 19.839752 272.188598 272.188598 0 0 1-25.855677 28.607643 746.934663 746.934663 0 0 1-45.503431 41.343483c-19.19976 16.127798-32.191598 28.159648-42.623467 36.479544a516.473544 516.473544 0 0 1-29.567631 21.503731c-6.39992 4.223947-13.439832 7.423907-20.863739 9.535881a85.182935 85.182935 0 0 1-17.983775 0h-2.111974V771.828752c0.191998-6.079924 1.151986-12.03185 2.943964-17.791777 1.471982-7.23191 4.03195-14.207822 7.551905-20.735741z m-14.655817-601.720479H198.077527a63.359208 63.359208 0 0 0-46.335421 18.559768 59.19926 59.19926 0 0 0-19.19976 42.239472 60.671242 60.671242 0 0 0 19.19976 45.567431 62.079224 62.079224 0 0 0 46.335421 19.007762h396.987038c17.663779 0.383995 34.687566-6.527918 47.103411-19.007762 12.671842-11.775853 19.839752-28.287646 19.583755-45.567431a59.583255 59.583255 0 0 0-11.647854-35.583555l145.278184 145.278184V640.630392h-154.878064a93.438832 93.438832 0 0 0-50.559368 12.79984 109.886626 109.886626 0 0 0-34.559568 31.487607 139.710254 139.710254 0 0 0-19.647755 41.343483 160.893989 160.893989 0 0 0-6.271921 41.407482V895.9872H125.502434a90.750866 90.750866 0 0 1-47.9994-12.79984C62.719219 874.611467 49.279387 863.9876 37.759531 851.635755c-11.327858-12.223847-20.671742-26.239672-27.519656-41.407483-6.527918-14.463819-9.919876-30.079624-10.047874-45.951425v-696.119299c0.127998-17.279784 4.863939-34.36757 13.823827-49.279384a179.837752 179.837752 0 0 1 78.847014-70.719116c12.991838-6.591918 27.19966-10.43187 41.727479-11.19986h292.156348l205.373433 206.973413a60.287246 60.287246 0 0 0-38.847515-12.415845z m-441.59448 362.491469a63.551206 63.551206 0 0 0 46.335421 18.687767h396.987038c17.59978 0.319996 34.559568-6.39992 47.103411-18.687767 12.671842-11.711854 19.839752-28.223647 19.583755-45.503431a60.287246 60.287246 0 0 0-19.583755-45.119436h-1.663979c-12.671842-11.96785-29.63163-18.559768-47.167411-18.175773H198.077527c-17.279784-0.383995-33.919576 6.143923-46.335421 18.175773a59.903251 59.903251 0 0 0-19.19976 45.119436 61.56723 61.56723 0 0 0 19.19976 45.503431z m817.269785-268.988638c-4.543943 10.047874-10.879864 19.19976-18.815765 26.879664a74.175073 74.175073 0 0 1-22.591718 17.855777 57.663279 57.663279 0 0 1-24.575693 6.591918 33.535581 33.535581 0 0 1-27.13566-9.535881l-13.311834-11.135861c-4.479944-4.415945-9.279884-8.575893-14.207822-12.479844l89.726878-86.078924a51.19936 51.19936 0 0 1 7.487906 6.271922l7.487907 7.807902 9.59988 9.59988a30.079624 30.079624 0 0 1 10.495869 23.487707 85.63093 85.63093 0 0 1-4.223948 20.73574z m-259.19676-115.454556l-38.015525-37.247535-35.071562-34.36757-26.239672-25.663679-13.759828-13.247835a77.503031 77.503031 0 0 1-17.151786-23.16771c-2.239972-5.119936-4.159948-10.36787-5.823927-15.743803l-7.935901-23.9997-7.551905-24.83169c-2.047974-8.319896-3.327958-14.463819-4.159948-18.175773a21.951726 21.951726 0 0 1 2.111973-17.407782c2.879964-3.263959 8.319896-4.543943 17.087787-3.263959 6.335921 1.151986 12.607842 2.687966 18.815765 4.479944 8.959888 1.855977 17.919776 4.223947 26.687666 7.039912 9.151886 2.559968 17.919776 5.759928 27.071662 8.703891l22.143723 9.983875 12.543843 7.423907 11.711854 8.703891 11.263859 11.135861 24.575693 24.447695 35.071561 33.919576 38.015525 36.79954 102.654717 98.942763-88.958888 86.078924-105.086686-100.542743z"  horiz-adv-x="1024" />

    
    <glyph glyph-name="loading" unicode="&#59746;" d="M834.7648 159.64160000000004a5.632 5.632 0 1 1 11.264 0 5.632 5.632 0 0 1-11.264 0z m-124.16-128.1024a11.1616 11.1616 0 1 1 22.3744 0 11.1616 11.1616 0 0 1-22.3744 0z m-167.3216-65.8944a16.7936 16.7936 0 1 1 33.6384 0 16.7936 16.7936 0 0 1-33.6384 0zM363.1616-25.600000000000023a22.3744 22.3744 0 1 1 44.7488 0 22.3744 22.3744 0 0 1-44.7488 0z m-159.744 82.0224a28.0064 28.0064 0 1 1 55.9616 0 28.0064 28.0064 0 0 1-56.0128 0zM92.672 195.84000000000003a33.6384 33.6384 0 1 1 67.2256 0 33.6384 33.6384 0 0 1-67.2256 0zM51.2 367.00160000000005a39.168 39.168 0 1 1 78.336 0 39.168 39.168 0 0 1-78.336 0z m34.1504 170.0864a44.8 44.8 0 1 1 89.6 0 44.8 44.8 0 0 1-89.6 0zM187.904 674.2016a50.432 50.432 0 1 1 100.864 0 50.432 50.432 0 0 1-100.864 0zM338.432 752.64a55.9616 55.9616 0 1 1 111.9232 0 55.9616 55.9616 0 0 1-111.9744 0z m169.0112 4.9152a61.5936 61.5936 0 1 1 123.2384 0 61.5936 61.5936 0 0 1-123.2384 0z m154.7776-69.632a67.1744 67.1744 0 1 1 134.3488 0 67.1744 67.1744 0 0 1-134.3488 0z m110.0288-130.816a72.8064 72.8064 0 1 1 145.5616 0 72.8064 72.8064 0 0 1-145.5616 0z m43.7248-169.472a78.3872 78.3872 0 1 1 156.8256 0 78.3872 78.3872 0 0 1-156.8256 0z"  horiz-adv-x="1024" />

    
    <glyph glyph-name="-bgcorrect" unicode="&#58916;" d="M404.48 235.51999999999998L220.16 414.72c-15.36 20.48-51.2 20.48-71.68 0-20.48-20.48-20.48-51.2 0-71.68L363.52 128c20.48-20.48 51.2-20.48 71.68 0L870.4 563.2c20.48 20.48 20.48 51.2 0 71.68-20.48 20.48-51.2 20.48-71.68 0l-394.24-399.36z"  horiz-adv-x="1024" />

    
    <glyph glyph-name="-selected" unicode="&#58987;" d="M882.33766597 639.26960702a45.20089771 45.20089771 0 0 0 63.95255719-63.95255719L537.06546396 166.09229116999995a45.20089771 45.20089771 0 0 0-63.99730992-1e-8L256.73039298 382.56431198999996a45.20089771 45.20089771 0 0 0 63.99731044 63.9525572l184.3838591-184.51811941 377.27085671 377.27085724h-0.04475326z"  horiz-adv-x="1365" />

    
    <glyph glyph-name="-client-mgr" unicode="&#59179;" d="M729.6 336c-80 0-147.2 64-147.2 147.2s64 147.2 147.2 147.2 147.2-64 147.2-147.2-67.2-147.2-147.2-147.2zM764.8 307.20000000000005h-12.8c-19.2 0-32-12.8-32-32 0 0 76.8-268.8 121.6-268.8h102.4c32 0 60.8 25.6 60.8 60.8 3.2 96-92.8 240-240 240zM377.6 396.8C275.2 396.8 192 480 192 579.2s83.2 182.4 182.4 182.4 182.4-83.2 182.4-182.4-80-182.4-179.2-182.4zM665.6 6.399999999999977H86.4c-38.4 0-70.4 32-70.4 70.4 0 124.8 121.6 307.2 307.2 307.2h99.2c188.8 0 307.2-182.4 307.2-307.2 6.4-38.4-25.6-70.4-64-70.4z"  horiz-adv-x="1024" />

    
    <glyph glyph-name="-pull-down" unicode="&#58918;" d="M134.656 565.76c-16.896 17.92-16.896 46.592 0 64.512s45.056 17.92 62.464 0l314.368-332.8 313.344 332.8c16.896 17.92 45.056 17.92 62.464 0s16.896-46.592 0-64.512l-336.896-349.696c-10.752-9.728-24.064-20.992-37.888-18.432-13.824-3.072-28.672 7.168-39.424 18.432L134.656 565.76z"  horiz-adv-x="1024" />

    
    <glyph glyph-name="-paixu" unicode="&#59271;" d="M755.4 465.5c0-8.2-3-15.4-9-21.4-6-6-13.2-9-21.4-9H299c-8.2 0-15.4 3-21.4 9-6 6-9 13.1-9 21.4 0 8.2 3 15.4 9 21.4l213 213c6 6 13.1 9 21.4 9 8.2 0 15.4-3 21.4-9l213-213c6-6 9-13.1 9-21.4z m-9-161.1c6-6 9-13.2 9-21.4s-3-15.4-9-21.4l-213-213c-6-6-13.2-9-21.4-9s-15.4 3-21.4 9l-213 213c-6 6-9 13.1-9 21.4 0 8.2 3 15.4 9 21.4 6 6 13.1 9 21.4 9h426c8.3 0 15.4-3 21.4-9z"  horiz-adv-x="1024" />

    
    <glyph glyph-name="-search" unicode="&#58886;" d="M1005.960949 16.21013000000005c19.952798-19.952798 24.173583-53.846975 4.284736-73.799774l-49.881996-56.277124c-19.952798-19.952798-56.59688-18.354017-76.549679 1.598782l-204.452233 207.585846c-1.470879 1.470879-2.046441 3.453369-3.325467 5.052151a434.229172 434.229172 0 1 0 192.493345 360.685203c0-87.677201-26.220024-169.087177-70.858015-237.259239 0.703464-0.639513 1.598782-0.895318 2.238294-1.53483l206.051015-206.051015zM434.236532 793.026293a332.035031 332.035031 0 1 1 0-664.134013 332.035031 332.035031 0 0 1 0 664.134013z m159.686339-204.644087a203.940623 203.940623 0 0 1-326.791026-10.04035L225.115855 607.439687a254.973742 254.973742 0 0 0 408.520759 12.790255l-39.777695-31.975638z"  horiz-adv-x="1024" />

    
    <glyph glyph-name="-add" unicode="&#59220;" d="M480.53237151 415.46762849H291.72660048c-17.46453383 0-31.46762849-14.09749757-31.46762851-31.46762849 0-17.49600144 14.09749757-31.46762849 31.46762851-31.46762849h188.80577103v-188.80577103c0-17.46453383 14.09749757-31.46762849 31.46762849-31.46762851 17.49600144 0 31.46762849 14.09749757 31.46762849 31.46762851V352.53237150999996h188.80577103c17.46453383 0 31.46762849 14.09749757 31.46762851 31.46762849 0 17.49600144-14.09749757 31.46762849-31.46762851 31.46762849H543.46762849V604.27339952c0 17.46453383-14.09749757 31.46762849-31.46762849 31.46762851-17.49600144 0-31.46762849-14.09749757-31.46762849-31.46762851v-188.80577103z"  horiz-adv-x="1024" />

    
    <glyph glyph-name="-next" unicode="&#59221;" d="M717.001135 313.17298600000004l55.994541 56.570484a25.725492 25.725492 0 0 1 0.575944 36.028487L304.049398 888.732869a24.957567 24.957567 0 0 1-35.580531-0.639938L199.739568 818.723694a25.661498 25.661498 0 0 1-0.639937-36.028487l384.602501-395.48144-383.642595-403.096698c-9.599064-9.599064-9.343089-25.597504 0.575944-35.644525l68.025367-68.729299c9.855039-9.983027 25.597504-10.239002 35.196569-0.575944l413.143718 434.069678z"  horiz-adv-x="1024" />

    
    <glyph glyph-name="-pre" unicode="&#59222;" d="M255.727888 454.846846l-55.990237-56.566136a25.723514 25.723514 0 0 1-0.639888-36.025718l469.550122-482.92379a24.955648 24.955648 0 0 1 35.577796 0.639888l68.724016 69.427894a25.659526 25.659526 0 0 1 0.5759 36.025718L389.016646 380.87574500000005l383.613107 403.065715a25.40357 25.40357 0 0 1-0.575899 35.641785L704.033715 888.307261A24.699693 24.699693 0 0 1 668.775863 888.94715L255.663899 454.846846z"  horiz-adv-x="1024" />

    
    <glyph glyph-name="-import" unicode="&#59225;" d="M1025.109333 546.474667a7.594667 7.594667 0 0 1-5.12 13.141333H808.874667L809.301333 871.68A22.613333 22.613333 0 0 1 786.602667 894.293333H579.84a22.698667 22.698667 0 0 1-22.698667-22.698666l0.426667-312.064H346.453333a7.594667 7.594667 0 0 1-5.12-13.141334L667.648 244.05333299999995a22.698667 22.698667 0 0 1 30.976 0l326.4 302.421334M1350.314667 224.59733300000005l-204.714667 159.573334a90.965333 90.965333 0 0 1-47.786667 16.384h-81.237333l231.253333-196.693334-267.946666-0.170666L879.786667 60.586667000000034H485.717333L389.802667 203.60533299999997l-266.666667 0.085334 239.274667 196.949333-93.866667-0.085333c-14.677333 0-36.266667-7.424-47.786667-16.469334L16.042667 224.59733300000005a40.96 40.96 0 0 1-12.8-41.813333l81.664-249.6a39.424 39.424 0 0 1 35.072-25.344h1127.936a39.253333 39.253333 0 0 1 34.986666 25.429333l80.213334 249.514667a41.130667 41.130667 0 0 1-12.8 41.813333"  horiz-adv-x="1365" />

    
    <glyph glyph-name="-reply" unicode="&#59227;" d="M1092.266667 99.87413300000003c0-54.818133-40.96-99.259733-90.658134-99.259733H712.704c-50.039467 0-127.7952-17.749333-174.353067-39.867733L387.072-111.20640000000003c-46.216533-21.981867-83.694933 4.778667-83.694933 59.5968v2.525867c0 27.4432-20.411733 49.698133-45.4656 49.698133H91.067733c-50.312533 0-91.067733 44.373333-91.067733 99.259733V796.740267C0 851.626667 40.823467 896 91.272533 896h909.7216C1051.4432 896 1092.266667 851.626667 1092.266667 796.740267v-696.866134zM343.8592 100.01066700000001c25.053867 0 45.329067-22.050133 45.329067-49.698134 0-27.511467 18.432-40.96 41.642666-29.9008l83.080534 39.7312c46.148267 22.050133 124.5184 39.867733 174.216533 39.867734h267.741867c25.122133 0 45.533867 22.391467 45.533866 50.107733V746.427733c0 27.648-20.753067 50.107733-45.124266 50.107734H136.192c-24.917333 0-45.124267-22.391467-45.124267-50.107734v-596.241066c0-27.648 20.48-50.107733 45.2608-50.107734h207.530667zM273.134933 348.842667c0 27.4432 20.753067 49.698133 45.602134 49.698133h454.997333c25.1904 0 45.602133-22.050133 45.602133-49.698133 0-27.511467-20.753067-49.7664-45.602133-49.7664H318.737067c-25.258667 0-45.602133 22.050133-45.602134 49.7664z m0 198.929066c0 27.511467 20.753067 49.7664 45.602134 49.7664h454.997333c25.1904 0 45.602133-22.050133 45.602133-49.7664 0-27.4432-20.753067-49.698133-45.602133-49.698133H318.737067c-25.258667 0-45.602133 22.050133-45.602134 49.698133z"  horiz-adv-x="1092" />

    
    <glyph glyph-name="-upward" unicode="&#59228;" d="M206.396383 616.017499L482.219144 896l275.822761-279.982501c19.1988-19.454784 19.1988-50.940816 0-70.3956a48.444972 48.444972 0 0 0-69.307668 0L531.24008 705.291919v-783.503031c0-27.51828-21.886632-49.788888-49.020936-49.788888a49.404912 49.404912 0 0 0-49.020936 49.788888V705.291919l-157.430161-159.734016a48.444972 48.444972 0 0 0-69.307668 0 50.172864 50.172864 0 0 0-0.127992 70.3956z"  horiz-adv-x="1024" />

    
    <glyph glyph-name="-add-picture" unicode="&#59230;" d="M0 384c0-282.176 229.824-512 512-512s512 229.824 512 512-229.824 512-512 512-512-229.824-512-512z m710.656-31.68H545.28v-162.432a30.08 30.08 0 0 0-30.72-30.72 30.08 30.08 0 0 0-30.848 30.72l1.6 162.432H321.472a30.08 30.08 0 0 0-30.72 30.72 30.08 30.08 0 0 0 30.72 30.848h163.84V576.256a30.08 30.08 0 0 0 30.72 30.784 30.08 30.08 0 0 0 30.848-30.72v-162.432h163.84a30.08 30.08 0 0 0 30.72-30.784 30.08 30.08 0 0 0-30.72-30.784z"  horiz-adv-x="1024" />

    
    <glyph glyph-name="-xia" unicode="&#59231;" d="M206.528 152L482.368-128l275.84 280c19.2 19.456 19.2 50.944 0 70.4a48.448 48.448 0 0 1-69.312 0L531.392 62.72000000000003V846.208A49.408 49.408 0 0 1 482.432 896a49.408 49.408 0 0 1-49.024-49.792V62.72000000000003l-157.44 159.744a48.448 48.448 0 0 1-69.312 0c-19.264-19.456-19.264-50.944-0.128-70.4z"  horiz-adv-x="1024" />

    
    <glyph glyph-name="-unstick" unicode="&#59232;" d="M511.872 896a511.872 511.872 0 1 1 0-1023.744A511.872 511.872 0 0 1 511.872 896z m0-93.632c98.752 0 189.44-34.24 260.992-91.52l-587.776-587.712A418.176 418.176 0 0 0 511.808 802.3679999999999z m0-836.48a416.448 416.448 0 0 0-261.056 91.52l587.776 587.776a418.176 418.176 0 0 0-326.72-679.232zM773.952 690.048h-526.08a43.008 43.008 0 0 1 0-86.08h526.08a43.008 43.008 0 1 1 0 86.08zM542.528 559.36a43.328 43.328 0 0 1-3.2 2.816c-0.448 0.448-0.96 0.768-1.472 1.152l-1.856 1.408-1.856 1.088-1.728 1.024-1.92 0.96-1.92 0.896-1.92 0.64c-0.64 0.256-1.344 0.576-2.048 0.768l-1.92 0.512-2.176 0.512-2.24 0.32-1.92 0.256a43.776 43.776 0 0 1-4.224 0.256h-0.64a42.88 42.88 0 0 1-31.04-12.608l-217.6-217.6a43.008 43.008 0 0 1 60.864-60.8L469.12 426.24v-300.48a43.008 43.008 0 1 1 86.016 0V425.152l144.128-144.128a42.88 42.88 0 0 1 60.8 0 43.008 43.008 0 0 1 0 60.8l-217.536 217.6z"  horiz-adv-x="1024" />

    
    <glyph glyph-name="-download" unicode="&#59233;" d="M512-128C229.76-128 0.96 101.12 0.96 383.744S229.76 895.296 512 895.296s511.04-229.056 511.04-511.616c0-282.56-228.8-511.616-511.04-511.616zM512 848.256C255.744 848.192 48 640.192 48 383.67999999999995S255.744-80.832 512-80.832s464 208 464 464.512S768.256 848.192 512 848.192zM536.96 125.05600000000004c-26.496-26.56-36.8-10.496-47.296 0L284.8 330.24c-35.008 35.072 6.72 64.832 34.56 36.864l170.304-178.88V629.952c0 50.304 47.296 45.696 47.296 0v-441.792l170.24 178.88c27.264 27.328 76.224 4.8 34.624-36.864L536.96 125.05600000000004z"  horiz-adv-x="1024" />

    
    <glyph glyph-name="-stick" unicode="&#59234;" d="M948.544 894.08h-876.8a71.68 71.68 0 0 1 0-143.424h876.8a71.68 71.68 0 1 1 0 143.36zM562.88 676.352a72.192 72.192 0 0 1-5.248 4.736l-2.56 1.92-3.072 2.304-3.072 1.92-2.944 1.664-3.2 1.536-3.2 1.472c-1.024 0.448-2.112 0.768-3.2 1.152-1.088 0.448-2.24 0.896-3.392 1.216l-3.2 0.832-3.584 0.896-3.84 0.576-3.136 0.448a72.96 72.96 0 0 1-7.04 0.32h-1.024a71.488 71.488 0 0 1-51.712-20.992L96.832 313.72799999999995a71.68 71.68 0 0 1 101.376-101.376l242.304 242.24v-500.928a71.68 71.68 0 1 1 143.36 0V452.544l240.256-240.192a71.488 71.488 0 0 1 101.376 0 71.68 71.68 0 0 1 0 101.376L562.88 676.352z"  horiz-adv-x="1024" />

    
    <glyph glyph-name="-close" unicode="&#59235;" d="M21.214167-107.86131999999998a67.870267 67.870267 0 0 1 96.437131 0L512.53866 287.08995000000004l394.95127-394.95127a67.870267 67.870267 0 0 1 96.373223 0 68.125899 68.125899 0 0 1 0 96.437131L608.911883 383.463173l394.95127 394.95127A68.125899 68.125899 0 1 1 907.426022 874.723758L512.53866 479.836396 117.58739 874.787666A68.125899 68.125899 0 1 1 21.278075 778.350535L416.165438 383.463173l-394.951271-394.95127a68.125899 68.125899 0 0 1 0-96.373223z"  horiz-adv-x="1025" />

    
    <glyph glyph-name="-edit" unicode="&#59236;" d="M817.4112-44.351999999999975c22.272 0 40.32-18.688 40.32-41.856 0-23.04-18.048-41.792-40.32-41.792H104.3232a41.088 41.088 0 0 0-40.32 41.792c0 23.168 18.048 41.856 40.32 41.856h713.088zM102.4032 12.159999999999968l96.896 268.48 157.888-163.84L102.4032 12.159999999999968z m287.168 135.488L230.3392 312.96000000000004l432.832 445.632 159.168-165.184-432.768-445.696z m462.528 480L692.8672 792.896 772.4832 875.456a65.856 65.856 0 0 0 95.488 0l63.68-66.048a72 72 0 0 0 0-99.2l-79.552-82.56z"  horiz-adv-x="1024" />

    
    <glyph glyph-name="-correct" unicode="&#59237;" d="M524.48 896a512 512 0 1 1 0-1024 512 512 0 0 1 0 1024z m282.048-379.776l-349.184-348.096a37.12 37.12 0 0 0-52.48 0L252.224 320.256a36.864 36.864 0 0 0 0 52.352 37.12 37.12 0 0 0 52.48 0l126.4-126.08 322.88 321.984a37.12 37.12 0 0 0 52.48 0 36.864 36.864 0 0 0 0.064-52.288z"  horiz-adv-x="1088" />

    
    <glyph glyph-name="-error" unicode="&#59239;" d="M536.96-128a512 512 0 1 1 0 1024 512 512 0 0 1 0-1024zM292.096 576.256a37.824 37.824 0 0 0 0 53.696 38.144 38.144 0 0 0 53.824 0l191.232-190.656 191.232 190.656a38.144 38.144 0 0 0 53.824 0 37.888 37.888 0 0 0 0-53.696L590.976 385.6l191.232-190.656a37.888 37.888 0 0 0 0-53.696 38.144 38.144 0 0 0-53.824 0l-191.232 190.72-191.232-190.72a38.144 38.144 0 0 0-53.76 0 37.888 37.888 0 0 0 0 53.76l191.168 190.592-191.232 190.72z"  horiz-adv-x="1088" />

    
    <glyph glyph-name="-biaoqian" unicode="&#59240;" d="M993.63008 383.36c35.84-41.28 36.288-81.344 1.088-120.32l-371.264-373.632c-16-12.992-34.368-18.688-55.04-17.152-20.608 1.536-36.672 8-48.128 19.456-92.416 92.48-174.912 175.36-247.488 248.704l-91.712 91.648c-29.76 29.824-56.32 56.576-79.616 80.256S59.03808 355.20000000000005 44.12608 370.17600000000004c-14.848 14.912-22.72 23.104-23.488 24.64a1048.128 1048.128 0 0 0-12.032 16.64A48.96 48.96 0 0 0 0.03008 440.64V509.44c0 17.536 0.192 37.376 0.576 59.52 0.384 22.208 0.576 44.736 0.576 67.648 0.768 53.504 1.536 113.088 2.304 178.752 0.768 0 1.152 0.384 1.152 1.152 1.472 9.984 3.2 19.52 5.12 28.672 1.92 9.152 7.04 17.92 15.488 26.368A58.624 58.624 0 0 0 51.61408 888.704a94.08 94.08 0 0 0 27.52 4.608h378.112c1.536 0 4.992-0.192 10.368-0.576a52.032 52.032 0 0 0 11.456-1.728c9.152-3.84 17.536-8.768 25.216-14.912l489.344-492.8zM174.23808 646.912c20.608 0 38.208 7.488 52.672 22.4 14.528 14.848 21.76 32.64 21.76 53.248 0 20.608-7.232 38.208-21.76 52.736a71.808 71.808 0 0 1-52.672 21.76c-20.672 0-38.208-7.232-52.736-21.76-14.528-14.528-21.76-32.128-21.76-52.736 0-20.608 7.232-38.4 21.76-53.312 14.528-14.848 32.064-22.336 52.736-22.336z"  horiz-adv-x="1024" />

    
    <glyph glyph-name="-tag-close" unicode="&#59241;" d="M512-128A512 512 0 1 0 512 896a512 512 0 0 0 0-1024zM512 832a448 448 0 1 1 0-896A448 448 0 0 1 512 832z m45.44-448.192l135.552-135.552a32 32 0 1 0-45.248-45.248L512.192 338.55999999999995 375.68 202.048a32.192 32.192 0 1 0-45.632 45.632L466.56 384.192 331.008 519.6800000000001a32 32 0 1 0 45.248 45.312L511.808 429.44l137.536 137.536a32.256 32.256 0 0 0 45.568-45.632L557.44 383.808z"  horiz-adv-x="1024" />

    
    <glyph glyph-name="-jinyan" unicode="&#59244;" d="M445.632 445.44c0-37.248 29.824-67.456 66.688-67.456 36.8 0 66.688 30.208 66.688 67.456 0 37.248-29.888 67.392-66.688 67.392-36.864 0-66.688-30.144-66.688-67.392M512.32 63.29600000000005c-49.856 0-97.728 7.04-142.528 20.032l-102.016-65.024v107.904C147.264 194.62400000000002 67.712 312.06399999999996 67.712 445.44c0 211.072 199.04 382.208 444.608 382.208 245.504 0 444.544-171.136 444.544-382.208 0-44.608-8.896-87.488-25.216-127.296 19.776-12.544 37.504-28.032 52.608-45.952a402.048 402.048 0 0 1 39.296 173.248c0 248.32-228.864 449.664-511.232 449.664C229.952 895.104 1.024 693.76 1.024 445.44c0-145.344 78.4-274.56 200.064-356.8v-157.44c0-24.768 15.936-32.64 35.584-17.664l131.2 100.416a581.504 581.504 0 0 1 247.68-8.96 230.208 230.208 0 0 0-25.856 64.064c-25.152-3.84-51.008-5.76-77.44-5.76M712.32 445.44c0-37.248 29.888-67.456 66.752-67.456 36.8 0 66.688 30.208 66.688 67.456 0 37.248-29.888 67.392-66.688 67.392-36.864 0-66.688-30.144-66.688-67.392M178.88 445.44c0-37.248 29.824-67.456 66.688-67.456 36.864 0 66.688 30.208 66.688 67.456 0 37.248-29.824 67.392-66.688 67.392-36.864 0-66.688-30.144-66.688-67.392M830.72 277.952c-97.408 0-176.64-80.32-176.64-179.136 0-98.752 79.232-179.072 176.64-179.072 97.536 0 176.768 80.32 176.768 179.072 0 98.816-79.232 179.2-176.704 179.2z m0-309.568c-70.912 0-128.64 58.496-128.64 130.432 0 29.312 9.536 56.32 25.664 78.144l180.16-182.528a126.976 126.976 0 0 0-77.12-26.048z m115.648 73.024l-172.288 174.592c17.152 8.512 36.352 13.312 56.704 13.312 71.04 0 128.704-58.496 128.704-130.496 0-20.544-4.736-40.064-13.12-57.408z"  horiz-adv-x="1024" />

    
    <glyph glyph-name="-time" unicode="&#59249;" d="M515.1992-128a511.872032 511.872032 0 1 0 0 1023.744064 511.872032 511.872032 0 0 0 511.872032-511.872032 511.872032 511.872032 0 0 0-511.872032-511.872032z m305.523619 343.722069L485.63859 314.257436c0 0.447888 0.255936 0.703824 0.255936 1.087728v358.950262c0 24.825794-21.114721 44.916771-47.092227 44.916771-26.04149 0-47.028243-20.090977-47.028243-44.852787v-358.950262c0-10.365409 4.286928-19.387153 10.429393-26.937266a44.084979 44.084979 0 0 1 31.16021-52.786803l359.270183-105.765559c24.76181-7.294176 51.187203 6.014496 58.993251 29.624594a44.340915 44.340915 0 0 1-30.84029 56.177955z"  horiz-adv-x="1087" />

    
    <glyph glyph-name="-delete" unicode="&#59250;" d="M842.88 569.344c-20.16 0-37.952-16.384-37.952-36.608v-547.52a36.48 36.48 0 0 0-36.928-36.096H256.064a36.672 36.672 0 0 0-37.12 36.096v549.12c0 20.224-14.72 36.608-34.944 36.608-20.224 0-35.008-16.384-35.008-36.608v-549.056c0-60.48 46.592-113.088 107.072-113.088h512.064c60.48 0 112.896 52.672 112.896 113.088V532.864c-0.128 20.096-17.92 36.48-38.08 36.48z m-406.912-437.888V533.76c0 20.16-14.784 36.544-35.008 36.544-20.224 0-35.008-16.256-35.008-36.544v-402.304c0-20.16 14.784-36.608 35.008-36.608 20.224 0 35.008 16.448 35.008 36.608z m221.952 0V533.76c0 20.16-17.792 36.544-37.952 36.544-20.224 0-38.016-16.256-38.016-36.544v-402.304c0-20.16 17.792-36.608 38.016-36.608 20.16 0 37.952 16.448 37.952 36.608z m329.408 583.552h-182.4V789.76c0 60.48-49.28 106.304-109.312 106.304H329.088c-60.416 0-110.08-45.824-110.08-106.24v-74.752H36.608c-20.288 0-36.608-14.784-36.608-35.008 0-20.16 16.32-34.944 36.608-34.944h950.784c20.224 0 36.608 14.72 36.608 34.944 0 20.224-16.384 35.008-36.672 35.008z m-258.368 0H289.92V789.76c0 20.224 19.072 36.288 39.168 36.288h366.528c20.032 0 33.28-15.744 33.28-36.288v-74.688z"  horiz-adv-x="1024" />

    
    <glyph glyph-name="-seek" unicode="&#59251;" d="M1050.56 39.936000000000035l-244.928 238.848c-2.88 2.752-6.016 4.864-8.96 7.168a385.408 385.408 0 0 1 65.472 215.04C862.08 719.168 680.704 896 456.832 896 233.088 896 51.52 719.168 51.52 500.992c0-218.24 181.568-395.072 405.312-395.072a410.752 410.752 0 0 1 220.8 64c2.304-3.008 4.48-6.016 7.232-8.768l245.056-238.848c16.704-16.256 38.464-24.32 60.288-24.32 21.824 0 43.648 8.064 60.352 24.32 33.28 32.512 33.28 85.12 0 117.632m-593.728 190.72c-152.832 0-277.312 121.344-277.312 270.336 0 148.992 124.48 270.336 277.312 270.336 152.896 0 277.312-121.344 277.312-270.336 0-148.992-124.416-270.272-277.312-270.272"  horiz-adv-x="1088" />

    
    <glyph glyph-name="-query" unicode="&#59252;" d="M512-128A512 512 0 1 1 512 896a512 512 0 0 1 0-1024z m-56.192 261.12H542.08v-85.952H455.808v86.016z m4.608 65.472a793.408 793.408 0 0 0-0.384 22.656c0 29.632 4.224 55.168 12.672 76.736 6.144 16.256 16.128 32.576 29.888 49.088 10.112 12.032 28.288 29.568 54.464 52.672 26.24 23.04 43.328 41.408 51.136 55.168 7.808 13.76 11.776 28.672 11.776 44.928 0 29.312-11.52 55.168-34.496 77.376a117.376 117.376 0 0 1-84.608 33.344c-32.256 0-59.2-10.048-80.832-30.208-21.568-20.096-35.776-51.584-42.496-94.336l-77.824 9.216c7.04 57.344 27.84 101.248 62.464 131.776 34.56 30.464 80.448 45.632 137.344 45.632 60.352 0 108.48-16.384 144.384-49.088 35.84-32.704 53.824-72.32 53.824-118.72 0-26.88-6.336-51.648-18.944-74.24-12.672-22.656-37.376-50.176-74.048-82.624-24.704-21.824-40.768-37.888-48.384-48.256a106.88 106.88 0 0 1-16.832-35.648c-3.648-13.44-5.76-35.2-6.272-65.472H460.416z"  horiz-adv-x="1024" />

    
    <glyph glyph-name="-lock" unicode="&#59253;" d="M829.632 465.088h-72.96V635.712C756.672 780.8 636.544 896 494.976 896 353.408 896 233.28 780.8 233.28 635.712v-170.624h-72.96C126.08 465.088 96 435.2 96 401.088V-64c0-34.112 30.08-64 64.384-64h669.248c34.304 0 64.384 29.888 64.384 64V401.088c0 38.4-30.08 64-64.384 64z m-300.288-307.2v-102.4c0-4.288-4.288-8.576-8.576-8.576h-55.808c-4.288 0-8.576 4.288-8.576 8.576v102.4c-25.728 12.8-42.88 38.4-42.88 72.512a81.28 81.28 0 0 0 81.472 81.088c42.88 0 81.536-34.176 81.536-81.088 0-34.112-21.44-59.712-47.168-72.512z m124.416 307.2H336.256v166.4c0 89.6 72.96 157.824 158.72 157.824a157.952 157.952 0 0 0 158.72-157.824v-166.4z"  horiz-adv-x="1024" />

    
    <glyph glyph-name="-key" unicode="&#59255;" d="M394.8115305 316.40361800000005c42.77285189 0 77.14389357 34.3710417 77.14389357 76.15095238 0 41.16886994-34.3710417 75.61629172-77.14389357 75.61629171s-77.29665376-34.44742178-77.29665377-75.61629171c0-41.77991067 34.14190141-76.15095237 77.29665377-76.15095238z m927.48346506-46.28633615l-72.17918756 70.88072599-69.50588431-69.12398385-68.89484357 67.97828245-69.12398385-67.97828245-80.42823756 66.67982088-77.90769451-71.33900654h-114.57013897A287.49466874 287.49466874 0 0 0 520.45678291 123.54388404999997C361.50981011 123.54388404999997 232.80935399 232.30913599999997 232.80935399 387.97176481 232.80935399 543.5580135499999 361.50981011 689.5203706 520.53316301 689.5203706 626.16683114 689.5203706 717.44104185 632.38806129 767.77552291 548.82823994h579.03748238L1443.81572296 452.74208339c15.27601854-14.89411807 14.05393705-48.57773892 0.61104074-62.3261556l-120.29864592-119.68760519-1.83312222-0.53466066z"  horiz-adv-x="2176" />

    
    <glyph glyph-name="-shield" unicode="&#59259;" d="M0.016 382.86403499999994a510.832036 510.832036 0 1 1 1021.72807 0A510.832036 510.832036 0 0 1 0.016 382.86403499999994z m204.345614 8.511735c0 23.551264 19.007406 42.622668 42.174682 42.622668h528.687478a42.23868 42.23868 0 0 0 42.174682-42.622668 42.494672 42.494672 0 0 0-42.174682-42.494673H246.536296a42.23868 42.23868 0 0 0-42.174682 42.494673z"  horiz-adv-x="1024" />

    
    <glyph glyph-name="-empty" unicode="&#59261;" d="M1018.368 539.5748570000001c12.361143-22.820571-14.701714 40.448-62.610286 40.448l-741.229714-0.292571c-27.648 0-46.811429-13.677714-62.902857-38.838857C135.533714 515.657143 0 306.61485700000003 0 262.363429v-284.086858a80.457143 80.457143 0 0 1 80.676571-80.164571h1008.64a80.457143 80.457143 0 0 1 80.676572 80.164571V262.363429c0 44.251429-151.625143 277.211429-151.625143 277.211428s-21.723429 40.448 0 0z m-264.777143-255.268571a37.595429 37.595429 0 0 1-38.253714-28.013715c0-2.048 0.292571-4.096 0.292571-6.144a131.145143 131.145143 0 0 0-262.363428 0c0 2.633143 0.292571 5.193143 0.438857 7.826286-9.362286 26.185143-37.302857 26.331429-37.302857 26.331429H69.924571L187.245714 500.370286s21.504 38.765714 51.785143 37.595428h698.806857c24.356571 0 28.525714-8.777143 46.08-37.595428l119.222857-216.210286h-349.476571zM332.434286 693.613714L243.273143 778.24a23.844571 23.844571 0 1 0 32.914286 34.596571l89.088-84.626285a23.844571 23.844571 0 0 0-32.841143-34.596572M578.048 730.989714a23.771429 23.771429 0 0 0-7.387429 16.676572L567.442286 870.546286a23.844571 23.844571 0 0 0 47.762285 1.243428l3.145143-122.88a23.844571 23.844571 0 0 0-40.228571-17.92M809.252571 698.002286a23.844571 23.844571 0 0 0-0.877714 33.718857l84.626286 89.234286a23.844571 23.844571 0 0 0 34.596571-32.914286l-84.626285-89.161143a23.844571 23.844571 0 0 0-33.718858-0.877714"  horiz-adv-x="1170" />

    
    <glyph glyph-name="-invisible" unicode="&#59262;" d="M988.672-128c-35.968 0-65.28 29.44-65.28 65.536V301.312a1645.568 1645.568 0 0 0-282.88 34.56L547.968-12.799999999999955a65.28 65.28 0 0 0-79.744-46.336 65.792 65.792 0 0 0-46.08 80.256l92.16 347.648a1161.856 1161.856 0 0 0-197.76 81.024L133.248 253.44000000000005c-7.68-15.104-29.696-27.264-52.48-27.264a64.896 64.896 0 0 0-62.848 48.64 65.28 65.28 0 0 0 6.528 49.664l180.864 194.816C92.672 602.752 23.808 702.592 5.632 808.576a43.52 43.52 0 0 0-2.56 17.536L0 855.936 10.752 856.96A65.28 65.28 0 0 0 68.224 891.648c23.68 0 44.8-12.416 56.32-32.384h2.944l3.456-12.16 2.432-12.8c32.896-226.304 408.576-403.2 855.296-403.2 446.592 0 822.272 176.896 855.04 402.56l3.84 25.6h3.072A64.384 64.384 0 0 0 1908.992 896a65.408 65.408 0 0 0 63.616-79.488c-11.008-80.384-54.144-160.64-124.8-231.936l189.696-256.64a63.616 63.616 0 0 0-22.272-91.136 65.92 65.92 0 0 0-88.576 23.424l-178.944 241.92a1025.536 1025.536 0 0 0-240.768-118.912l111.872-354.816c5.248-16.896 3.2-34.56-5.504-49.92a71.04 71.04 0 0 0-45.696-33.28 77.568 77.568 0 0 0-17.664-2.048 71.296 71.296 0 0 0-69.12 48.384l-110.848 351.744c-100.608-23.808-206.848-38.016-316.16-41.984v-363.776a65.408 65.408 0 0 0-65.28-65.536z"  horiz-adv-x="2048" />

    
    <glyph glyph-name="-visible" unicode="&#59263;" d="M819.551232 76.79999999999995m-204.8 0a204.8 204.8 0 1 1 409.6 0 204.8 204.8 0 1 1-409.6 0ZM898.092032 843.6736v-290.4064c77.5168-2.7648 153.3952-12.0832 225.792-27.648l73.9328 278.4256a52.224 52.224 0 0 0 63.5904 36.9664c27.648-7.4752 44.2368-36.1472 36.864-64l-73.728-277.504a927.5392 927.5392 0 0 0 158.0032-64.7168l146.3296 156.672c6.144 12.1856 23.6544 21.8112 41.8816 21.8112a51.8144 51.8144 0 0 0 50.176-38.7072 52.224 52.224 0 0 0-5.2224-39.7312l-144.384-155.648c89.8048-66.56 144.896-146.2272 159.3344-230.912 1.024-1.024 2.1504-7.4752 2.1504-13.9264l2.4576-23.7568-8.6016-0.9216a52.224 52.224 0 0 0-45.8752-27.648 51.5072 51.5072 0 0 0-45.056 25.9072l-5.0176 9.6256-2.048 10.24C1502.559232 308.5312 1202.732032 449.536 846.175232 449.536s-656.384-141.1072-682.7008-321.3312l-2.9696-20.48a58.368 58.368 0 0 0-49.152-29.2864 52.224 52.224 0 0 0-50.688 63.488c8.704 64.1024 43.2128 128.2048 99.6352 185.1392l-151.4496 204.8a50.7904 50.7904 0 0 0 17.8176 72.704 52.5312 52.5312 0 0 0 70.656-18.6368l142.848-193.024a818.688 818.688 0 0 0 192.2048 94.8224l-89.2928 283.3408a49.8688 49.8688 0 0 0 4.4032 39.936 56.7296 56.7296 0 0 0 36.4544 26.5216 61.952 61.952 0 0 0 14.1312 1.6384c25.6 0 48.128-15.9744 55.0912-38.7072l88.4736-280.7808a1301.1968 1301.1968 0 0 0 252.416 33.4848V843.776A52.224 52.224 0 0 0 846.175232 896c28.672 0 52.0192-23.552 52.0192-52.3264z"  horiz-adv-x="1638" />

    
    <glyph glyph-name="-banned" unicode="&#59265;" d="M1052.0576 320.238933V791.1424c0 57.685333-46.830933 104.174933-104.584533 104.174933H105.745067C48.196267 895.317333 1.024 848.896 1.024 791.552v-573.2352c0-57.207467 46.830933-103.697067 104.584533-103.697067h24.576c43.144533-38.843733 68.539733-56.251733 117.896534-111.752533 100.283733 82.807467 139.264 111.752533 139.264 111.752533H492.885333c27.101867-137.693867 149.504-241.664 296.482134-241.664 166.912 0 302.216533 134.007467 302.216533 299.281067 0 53.794133-14.336 104.2432-39.458133 147.933867z m-564.155733-127.453866H361.130667s-87.2448-67.584-106.769067-83.3536c-7.3728 6.9632-93.7984 83.285333-93.7984 83.285333h-54.954667a25.736533 25.736533 0 0 0-25.736533 25.668267V791.552a25.941333 25.941333 0 0 0 25.736533 25.6h841.728c14.336 0 25.873067-11.4688 25.873067-26.077867v-381.3376a302.6944 302.6944 0 0 1-183.978667 61.8496c-159.880533 0-290.816-123.0848-301.397333-278.869333z m301.397333-241.664c-123.2896 0-223.300267 98.986667-223.300267 221.184 0 46.421333 14.404267 89.429333 38.980267 124.928l313.685333-305.288534a223.778133 223.778133 0 0 0-129.365333-40.891733z m184.593067 96.597333l-313.617067 305.152a223.778133 223.778133 0 0 0 129.024 40.686933c123.357867 0 223.368533-99.054933 223.368533-221.184 0-46.2848-14.336-89.156267-38.775466-124.654933zM226.645333 625.800533H552.96a39.253333 39.253333 0 0 1 39.389867 39.048534 39.253333 39.253333 0 0 1-39.389867 39.048533H226.645333a39.253333 39.253333 0 0 1-39.389866-39.048533c0-21.572267 17.6128-39.048533 39.389866-39.048534M546.542933 538.965333H220.501333a39.253333 39.253333 0 0 1-39.458133-38.980266c0-21.572267 17.681067-39.048533 39.458133-39.048534h326.109867a39.253333 39.253333 0 0 1 39.458133 39.048534 39.253333 39.253333 0 0 1-39.458133 39.048533"  horiz-adv-x="1092" />

    
    <glyph glyph-name="-passed" unicode="&#59266;" d="M682.624853 705.727479H797.824781V857.663384a38.207976 38.207976 0 0 1-38.207976 38.399976L608.4489 895.93536h-2.175999v-113.535929a76.671952 76.671952 0 0 1 76.351952-76.735952z m-208.639869-606.655621v15.35999c0 4.095997 0.32 8.959994 1.023999 14.399991h-251.519843a62.399961 62.399961 0 0 0-45.311971 18.367989 60.415962 60.415962 0 0 0-18.879989 44.991972c0 17.727989 6.271996 32.895979 18.879989 45.567971a61.503962 61.503962 0 0 0 45.311971 18.879989h296.319815c25.791984 40.319975 59.903963 72.319955 102.335936 96.191939a280.447825 280.447825 0 0 0 140.031913 35.839978 292.799817 292.799817 0 0 0 35.647977-2.111999V640.2555199999999H649.152874c-19.007988 0-35.327978 4.287997-48.895969 12.799992a109.759931 109.759931 0 0 0-33.087979 31.74398 138.047914 138.047914 0 0 0-18.815989 41.407974 160.831899 160.831899 0 0 0-6.143996 41.983974V895.99936H70.273236A38.015976 38.015976 0 0 1 32.00126 857.599384V103.03985599999999H32.00126v-129.08792a38.015976 38.015976 0 0 1 38.207976-38.399976l90.367944 0.064 2.815998-0.064h361.535774a280.063825 280.063825 0 0 0-37.695977 76.159953 285.183822 285.183822 0 0 0-13.247991 87.423945z m-295.807815 394.879753a62.399961 62.399961 0 0 0 45.311971 18.431989h381.823762c17.663989 0 32.76798-6.079996 45.375971-18.367989a60.543962 60.543962 0 0 0 18.815989-44.991972 62.335961 62.335961 0 0 0-18.815989-45.567971 61.695961 61.695961 0 0 0-45.375971-18.879988H223.48914a61.439962 61.439962 0 0 0-45.311971 18.879988 62.207961 62.207961 0 0 0-18.879989 45.567971c0 17.727989 6.271996 32.70398 18.879989 44.991972z m794.239503-308.863807a229.951856 229.951856 0 0 1-119.679925 120.191925 215.551865 215.551865 0 0 1-87.487945 17.919989c-30.591981 0-59.391963-6.015996-86.591946-17.919989a229.951856 229.951856 0 0 1-119.679925-120.191925c-11.839993-27.263983-17.791989-56.319965-17.791989-87.039945 0-31.35998 5.951996-60.671962 17.855989-87.935945a230.015856 230.015856 0 0 1 119.679925-120.191925c27.135983-11.903993 55.935965-17.919989 86.527946-17.919989 31.23198 0 60.415962 6.015996 87.551945 17.919989a230.015856 230.015856 0 0 1 119.679925 120.191925c11.839993 27.263983 17.791989 56.639965 17.791989 87.999945 0 30.719981-5.951996 59.711963-17.791989 87.039945z m-50.559968 3.839998l-207.103871-220.863862a8.191995 8.191995 0 0 0-11.519993-0.384l-93.247941 85.759947a7.679995 7.679995 0 0 0-0.064 11.199993l28.799982 27.647982a8.127995 8.127995 0 0 0 11.263993 0.064l53.119967-50.239968a8.127995 8.127995 0 0 1 11.647992 0.447999l166.015897 184.447885a8.127995 8.127995 0 0 0 11.711992 0.448l29.055982-27.647983a7.679995 7.679995 0 0 0 0.32-10.879993z"  horiz-adv-x="1024" />

    
    <glyph glyph-name="-cumulative" unicode="&#59267;" d="M881.404695 661.822958h129.919513c9.599964 0 17.471934 9.983963 17.471934 22.335916 0 12.287954-7.807971 22.271916-17.471934 22.271917H796.157014c-9.663964 0-17.471934-9.983963-17.471934-22.271917 0-12.351954 7.807971-22.335916 17.471934-22.335916h85.31168z m-169.663364-303.038863c15.231943 0 27.647896 10.367961 27.647896 23.231912 0 12.799952-12.415953 23.167913-27.647896 23.167914H552.573928v24.575907l152.959426 147.711446c10.047962 9.727964 8.831967 24.319909-2.68799 32.767878a31.423882 31.423882 0 0 1-39.039853-2.303992L524.798032 473.727664 394.494521 607.743161a31.359882 31.359882 0 0 1-38.911854 3.263988c-11.839956-8.06397-13.567949-22.719915-3.903986-32.639878L497.278135 428.671832v-23.487911H354.942669c-15.231943 0-27.647896-10.367961-27.647896-23.167914 0-12.799952 12.415953-23.231913 27.647896-23.231912H497.278135v-38.143857H354.942669c-15.231943 0-27.647896-10.367961-27.647896-23.167914 0-12.799952 12.415953-23.231913 27.647896-23.231912H497.278135v-121.279546c0-12.799952 12.351954-23.231913 27.647897-23.231912s27.647896 10.431961 27.647896 23.231912V274.240412h159.167403c15.231943 0 27.647896 10.431961 27.647896 23.231912 0 12.799952-12.415953 23.167913-27.647896 23.167914H552.573928v38.143857h159.167403z m318.078807 150.847434a23.551912 23.551912 0 0 1-45.695828-11.519957c9.343965-37.119861 14.079947-75.519717 14.079947-114.111572 0-256.319039-208.511218-464.894257-464.894257-464.894257-256.319039 0-464.830257 208.575218-464.830257 464.894257C68.479743 640.319039 276.990961 848.894257 533.31 848.894257c68.287744 0 134.015497-14.463946 195.455267-42.943839a23.551912 23.551912 0 0 1 19.839926 42.751839A507.774096 507.774096 0 0 1 533.246 895.99808a508.670092 508.670092 0 0 1-362.046642-149.951438A508.670092 508.670092 0 0 1 21.31192 384c0-136.767487 53.2478-265.343005 149.951438-362.046642A508.670092 508.670092 0 0 1 533.31-127.99807999999996a508.670092 508.670092 0 0 1 362.046642 149.951438A508.670092 508.670092 0 0 1 1045.30808 384c0 42.495841-5.183981 84.735682-15.487942 125.631529z"  horiz-adv-x="1087" />

    
    <glyph glyph-name="-current-balance" unicode="&#59268;" d="M733.056 358.784c15.232 0 27.648 10.432 27.648 23.232s-12.352 23.168-27.648 23.168H573.888v24.576l152.96 147.712c9.984 9.664 8.832 24.32-2.752 32.768a31.488 31.488 0 0 1-38.976-2.304L546.176 473.728 415.808 607.744a31.36 31.36 0 0 1-38.912 3.264c-11.84-8.064-13.568-22.72-3.904-32.64l145.6-149.696v-23.488H376.256c-15.296 0-27.648-10.368-27.648-23.168s12.352-23.232 27.648-23.232h142.336v-38.144H376.256c-15.296 0-27.648-10.368-27.648-23.104 0-12.864 12.352-23.232 27.648-23.232h142.336v-121.28c0-12.864 12.352-23.232 27.648-23.232s27.648 10.368 27.648 23.232V274.24h159.168c15.232 0 27.648 10.368 27.648 23.232 0 12.736-12.352 23.104-27.648 23.104H573.888v38.208h159.168zM554.688 896a512 512 0 0 1-512-512 512 512 0 1 1 1024 0 512 512 0 0 1-512 512z m0-960a448 448 0 1 0 0 896 448 448 0 0 0 0-896z"  horiz-adv-x="1088" />

    
    <glyph glyph-name="-top-up" unicode="&#59269;" d="M774.719015 661.822958h85.37568v-85.31168c0-9.663964 9.983963-17.471934 22.271916-17.471934 12.287954 0 22.271916 7.807971 22.271917 17.471934V661.758958h85.375679c9.599964 0 17.471934 9.983963 17.471935 22.335917 0 12.287954-7.807971 22.271916-17.471935 22.271916h-85.375679V791.678471c0 9.599964-9.983963 17.471934-22.271917 17.471935-12.287954 0-22.271916-7.807971-22.271916-17.471935v-85.31168h-85.37568c-9.599964 0-17.471934-9.983963-17.471935-22.271916 0-12.351954 7.87197-22.335916 17.471935-22.335917z m-84.351684-303.038863c15.295943 0 27.647896 10.367961 27.647896 23.231912 0 12.799952-12.351954 23.167913-27.647896 23.167914H531.263928v24.575907l152.959426 147.711446c9.983963 9.727964 8.767967 24.319909-2.75199 32.767878a31.423882 31.423882 0 0 1-39.039853-2.303992l-138.879479-134.207496L373.120521 607.743161a31.359882 31.359882 0 0 1-38.847855 3.263988c-11.839956-8.06397-13.631949-22.719915-3.967985-32.639878l145.663454-149.695439v-23.487911H333.632669c-15.295943 0-27.647896-10.367961-27.647896-23.167914 0-12.799952 12.351954-23.231913 27.647896-23.231912h142.335466v-38.143857H333.632669c-15.295943 0-27.647896-10.367961-27.647896-23.167914 0-12.799952 12.351954-23.231913 27.647896-23.231912h142.335466v-121.279546c0-12.799952 12.351954-23.231913 27.647896-23.231912 15.231943 0 27.647896 10.431961 27.647897 23.231912V274.240412h159.103403c15.295943 0 27.647896 10.431961 27.647896 23.231912 0 12.799952-12.351954 23.167913-27.647896 23.167914H531.263928v38.143857h159.103403z m318.078807 150.847434a23.551912 23.551912 0 0 1-45.631829-11.519957c9.343965-37.119861 14.079947-75.519717 14.079948-114.111572 0-256.319039-208.575218-464.894257-464.894257-464.894257C255.680961-80.89425700000004 47.105743 127.68096100000002 47.105743 384 47.105743 640.319039 255.680961 848.894257 512 848.894257c68.223744 0 134.015497-14.463946 195.391267-42.943839a23.551912 23.551912 0 0 1 19.839926 42.751839A507.774096 507.774096 0 0 1 512 895.99808a508.670092 508.670092 0 0 1-362.046642-149.951438A508.670092 508.670092 0 0 1 0.00192 384c0-136.767487 53.2478-265.343005 149.951438-362.046642A508.670092 508.670092 0 0 1 512-127.99807999999996a508.670092 508.670092 0 0 1 362.046642 149.951438A508.670092 508.670092 0 0 1 1023.99808 384c0 42.495841-5.24798 84.735682-15.551942 125.631529z"  horiz-adv-x="1024" />

    
    <glyph glyph-name="-tixianjine" unicode="&#59270;" d="M499.32928-126.46400000000006a486.144 486.144 0 0 0-194.368 40.192 497.088 497.088 0 0 0-158.72 109.568 510.336 510.336 0 0 0-107.008 162.496A518.592 518.592 0 0 0 0.00128 384.832C0.00128 453.76 13.18528 520.64 39.23328 583.6800000000001a510.4 510.4 0 0 0 107.008 162.56A497.28 497.28 0 0 0 304.96128 855.744 486.272 486.272 0 0 0 499.32928 896c67.392 0 132.736-13.504 194.304-40.192a497.28 497.28 0 0 0 158.72-109.568 510.336 510.336 0 0 0 107.008-162.496 526.528 526.528 0 0 0 28.544-304.832 23.936 23.936 0 0 0-28.352-18.88 24.512 24.512 0 0 0-18.56 29.056c6.464 31.232 9.728 63.424 9.728 95.68 0 254.848-202.496 462.208-451.392 462.208-248.96 0-451.456-207.36-451.456-462.208s202.496-462.208 451.456-462.208a445.44 445.44 0 0 1 290.816 108.736 23.552 23.552 0 0 0 33.728-2.944 24.96 24.96 0 0 0-2.88-34.56 494.72 494.72 0 0 0-147.456-88.256c-55.68-21.248-114.304-32-174.208-32zM964.48128 259.52a23.68 23.68 0 0 0-17.536 7.808L851.20128 372.48a24.96 24.96 0 0 0 1.216 34.624 23.552 23.552 0 0 0 33.792-1.216l95.68-105.152a24.96 24.96 0 0 0-1.152-34.688 23.616 23.616 0 0 0-16.32-6.528zM968.32128 259.52a23.552 23.552 0 0 0-16.32 6.528 24.96 24.96 0 0 0-1.216 34.688l95.68 105.152a23.552 23.552 0 0 0 33.856 1.28 24.96 24.96 0 0 0 1.216-34.688l-95.68-105.152a23.68 23.68 0 0 0-17.536-7.808zM870.59328 137.60000000000002c0-6.08 2.496-12.224 6.72-16.64a23.04 23.04 0 0 1 16.32-6.848 23.04 23.04 0 0 1 16.256 6.848 24.128 24.128 0 0 1 0 33.344 23.04 23.04 0 0 1-16.256 6.912 23.04 23.04 0 0 1-16.32-6.912 24.128 24.128 0 0 1-6.72-16.64zM690.36928 357.376c15.296 0 27.648 10.368 27.648 23.168 0 12.8-12.352 23.232-27.648 23.232H531.26528v24.576l152.96 147.712c9.984 9.664 8.768 24.32-2.752 32.768a31.424 31.424 0 0 1-39.04-2.304L503.61728 472.32 373.12128 606.2719999999999a31.36 31.36 0 0 1-38.848 3.328c-11.84-8.128-13.632-22.72-3.968-32.64l145.664-149.76v-23.424H333.63328c-15.296 0-27.648-10.368-27.648-23.232 0-12.8 12.352-23.168 27.648-23.168h142.336v-38.144H333.63328c-15.296 0-27.648-10.368-27.648-23.168 0-12.8 12.352-23.232 27.648-23.232h142.336v-121.28c0-12.8 12.352-23.232 27.648-23.232 15.232 0 27.648 10.368 27.648 23.232V272.832h159.104c15.296 0 27.648 10.368 27.648 23.232 0 12.8-12.352 23.168-27.648 23.168H531.26528v38.144h159.104z"  horiz-adv-x="1088" />

    
    <glyph glyph-name="-file-close" unicode="&#59272;" d="M1062.180571 738.230857H620.982857l-36.790857 51.419429C546.523429 857.453714 536.649143 892.489143 477.988571 892.489143H106.203429C47.542857 892.489143 0 846.409143 0 789.650286v-771.437715c0-56.758857 47.542857-102.838857 106.203429-102.838857h955.977142c58.660571 0 106.276571 46.08 106.276572 102.838857V635.318857c0 56.832-47.542857 102.912-106.276572 102.912"  horiz-adv-x="1170" />

    
    <glyph glyph-name="-file-open" unicode="&#59275;" d="M1038.628571-16.74971400000004c0-38.985143-32.694857-70.509714-72.923428-70.509715H54.637714l127.634286 582.217143c0 38.985143 32.475429 70.582857 72.704 70.582857h838.363429c40.228571 0 72.777143-31.597714 72.777142-70.582857L1038.628571-16.74971400000004M200.411429 618.496h819.931428v69.339429c0 38.985143-32.621714 70.582857-72.850286 70.582857H510.244571v63.926857c0 38.985143-32.621714 70.582857-72.850285 70.582857H72.850286C32.621714 892.928 0 861.330286 0 822.345143v-839.094857l127.488 564.662857c0 38.985143 32.694857 70.582857 72.923429 70.582857"  horiz-adv-x="1170" />

    
    <glyph glyph-name="-userinfo" unicode="&#59276;" d="M649.215594 425.856294l6.847996 15.93599a146.559908 146.559908 0 0 1 9.343994 51.903967c0 41.919974-17.343989 79.87195-45.183972 107.391933a153.983904 153.983904 0 0 1-108.159932 44.223973c-42.175974 0-80.44795-16.959989-108.159932-44.223973a149.887906 149.887906 0 0 1-35.967978-159.2959l7.039996-15.93599a222.079861 222.079861 0 0 1-55.039966-62.079961 216.639865 216.639865 0 0 1 1.407999-225.791859l9.343994-15.231991h362.623774l9.343994 15.231991a220.799862 220.799862 0 0 1 32.44798 114.239928 221.631861 221.631861 0 0 1-85.887947 173.631892z m16.12799-215.615865a130.303919 130.303919 0 0 0-8.895994-23.487986H367.55177a140.671912 140.671912 0 0 0-8.895994 23.487986 156.159902 156.159902 0 0 0 15.93599 120.831924c14.207991 24.063985 35.007978 43.967973 59.903962 57.727964l34.367979 18.815988-25.535984 29.823982a85.887946 85.887946 0 0 0-20.671987 56.191964c0 24.191985 10.047994 46.079971 25.919984 61.823962 16.12799 15.93599 38.655976 25.791984 63.55196 25.791984 24.767985 0 47.23197-9.855994 63.42396-25.791984 15.99999-15.74399 25.855984-37.631976 25.855984-61.823962 0-10.559993-1.791999-20.671987-5.183997-29.887981a92.159942 92.159942 0 0 0-15.55199-26.303983l-25.343984-29.823982 34.175979-18.815988c25.023984-13.695991 45.759971-33.727979 59.967962-57.663964a153.599904 153.599904 0 0 0 21.567987-78.847951 161.599899 161.599899 0 0 0-5.695997-42.047973zM873.855454 746.048094A510.207681 510.207681 0 0 1 512.06368 896a510.847681 510.847681 0 0 1-362.047774-149.951906C57.407964 653.440152 0 525.4402319999999 0 384.00032s57.407964-269.439832 150.015906-362.047774A510.399681 510.399681 0 0 1 512.06368-127.99936000000002c141.439912 0 269.375832 57.343964 361.919774 150.079906A510.079681 510.079681 0 0 1 1023.99936 384.00032a510.207681 510.207681 0 0 1-150.143906 362.047774z m-45.183972-678.783576a446.527721 446.527721 0 0 0-316.607802-131.199918 446.463721 446.463721 0 0 0-316.735802 131.199918A446.655721 446.655721 0 0 0 64.06396 384.00032c0 123.647923 50.239969 235.775853 131.263918 316.927802A446.399721 446.399721 0 0 0 512.06368 832.00004c123.711923 0 235.839853-50.111969 316.799802-131.199918A446.719721 446.719721 0 0 0 959.9354 384.00032a445.887721 445.887721 0 0 0-131.263918-316.735802z"  horiz-adv-x="1024" />

    
    <glyph glyph-name="-right-on" unicode="&#59277;" d="M620.16 382.27200000000005l0.064-0.128-70.784-72.96-0.128 0.192L124.992-128 54.272-55.10400000000004l424.32 437.376-424.32 437.312L124.992 892.544l495.104-510.272m400.192 0l0.128-0.128-70.72-72.96-0.128 0.192L525.248-128 454.4-55.10400000000004l424.32 437.376-424.32 437.312L525.184 892.544l495.104-510.272"  horiz-adv-x="1024" />

    
    <glyph glyph-name="-logout" unicode="&#59278;" d="M747.52 244.096l50.56-50.56 202.048 202.112L798.08 597.76l-50.56-50.56 115.84-115.776H357.248v-71.424h506.24zM499.456-32.960000000000036a425.856 425.856 0 0 0-303.104 125.504 425.216 425.216 0 0 0-124.928 303.104c0 114.496 43.968 222.08 124.928 303.104a425.856 425.856 0 0 0 303.104 125.504 425.792 425.792 0 0 0 319.488-142.848h90.88A499.392 499.392 0 0 1 499.456 895.744C223.36 895.744 0 671.808 0 395.648c0-276.16 223.296-500.096 499.456-500.096 169.92 0 320 84.8 410.432 214.4h-90.944a425.792 425.792 0 0 0-319.424-142.912z"  horiz-adv-x="1024" />

    
    <glyph glyph-name="-left-on" unicode="&#59279;" d="M454.656 382.336l-0.128-0.128 70.784-72.96 0.128 0.192L949.888-128l70.72 72.896-424.448 437.44 424.448 437.504L949.888 892.736 454.656 382.336z m-400.256 0l-0.128-0.128 70.72-72.896 0.128 0.128L549.568-128l70.784 72.896-424.448 437.44L620.352 819.84 549.632 892.736 54.4 382.336z"  horiz-adv-x="1024" />

    


  </font>
</defs>
</svg>
